<?xml version="1.0" standalone="no"?>
<svg width="64" height="64" viewBox="0 0 256 384" version="1.1" xmlns="http://www.w3.org/2000/svg">
  <path d="M217 371c25 -19 39 -46 39 -83c0 -22 -8 -42 -19 -57c-7 -9 -21 -21 -40 -36l-21 -14c-10 -8 -17 -18 -20 -28c-2 -6 -3 -19 -3 -29c0 -2 -1 -6 -7 -6h-62c-7 0 -7 3 -7 5c1 26 4 49 15 66c15 23 57 48 57 48c6 5 11 9 15 15c7 10 12 21 12 32c0 13 -3 26 -11 36 c-10 12 -21 18 -41 18s-32 -11 -40 -24s-7 -29 -7 -43h-77c0 54 14 88 44 108c20 14 45 20 75 20c39 0 70 -7 98 -28zM114 78c27 -1 47 -20 46 -48s-22 -46 -49 -45c-26 1 -46 19 -45 47s22 47 48 46z" transform="matrix(1,0,0,-1,0,384)"/>
</svg>